<svg xmlns="http://www.w3.org/2000/svg" xmlns:xlink="http://www.w3.org/1999/xlink" width="100" zoomAndPan="magnify" viewBox="0 0 75 94.499997" height="126" preserveAspectRatio="xMidYMid meet" version="1.0"><defs><clipPath id="7dffd24431"><path d="M 7.316406 7.460938 L 67.746094 7.460938 L 67.746094 85.050781 L 7.316406 85.050781 Z M 7.316406 7.460938 " clip-rule="nonzero"/></clipPath></defs><path fill="#93c0fc" d="M 30.296875 9.683594 C 38.777344 9.683594 45.71875 16.625 45.71875 25.105469 L 45.71875 53.824219 L 38.910156 53.824219 L 38.910156 25.105469 C 38.910156 20.382812 35.019531 16.496094 30.296875 16.496094 C 25.570312 16.496094 21.679688 20.382812 21.679688 25.105469 L 21.679688 53.824219 L 14.867188 53.824219 L 14.867188 25.105469 C 14.867188 16.625 21.808594 9.683594 30.296875 9.683594 Z M 30.296875 9.683594 " fill-opacity="1" fill-rule="evenodd"/><path fill="#93c0fc" d="M 9.121094 35.597656 L 9.121094 72.324219 L 31.683594 72.324219 C 31.757812 70.644531 32.230469 68.953125 33.132812 67.394531 C 35.277344 63.679688 39.285156 61.707031 43.296875 61.972656 L 51.46875 47.824219 L 51.46875 35.597656 Z M 29.992188 53.019531 C 27.980469 53.019531 26.339844 51.378906 26.339844 49.367188 C 26.339844 47.359375 27.980469 45.71875 29.992188 45.71875 C 32.003906 45.71875 33.640625 47.359375 33.640625 49.367188 C 33.640625 51.378906 32.003906 53.019531 29.992188 53.019531 Z M 29.992188 53.019531 " fill-opacity="1" fill-rule="evenodd"/><g clip-path="url(#7dffd24431)"><path fill="#126dfb" d="M 27.230469 71.046875 L 9.75 71.046875 L 9.75 36.1875 L 50.308594 36.1875 L 50.308594 40.085938 C 50.308594 40.753906 50.851562 41.296875 51.523438 41.296875 C 52.191406 41.296875 52.734375 40.753906 52.734375 40.085938 L 52.734375 34.976562 C 52.734375 34.308594 52.191406 33.765625 51.523438 33.765625 L 46.898438 33.765625 L 46.898438 24.332031 C 46.898438 15.027344 39.332031 7.460938 30.03125 7.460938 C 20.726562 7.460938 13.160156 15.027344 13.160156 24.332031 L 13.160156 33.765625 L 8.539062 33.765625 C 7.871094 33.765625 7.328125 34.308594 7.328125 34.976562 L 7.328125 72.257812 C 7.328125 72.925781 7.871094 73.46875 8.539062 73.46875 L 27.230469 73.46875 C 27.898438 73.46875 28.441406 72.925781 28.441406 72.257812 C 28.441406 71.589844 27.898438 71.046875 27.230469 71.046875 Z M 37.5625 33.765625 L 22.5 33.765625 L 22.5 24.332031 C 22.5 20.175781 25.878906 16.796875 30.03125 16.796875 C 34.183594 16.796875 37.5625 20.175781 37.5625 24.332031 Z M 15.582031 24.332031 C 15.582031 16.363281 22.0625 9.882812 30.03125 9.882812 C 37.996094 9.882812 44.476562 16.363281 44.476562 24.332031 L 44.476562 33.765625 L 39.984375 33.765625 L 39.984375 24.332031 C 39.984375 18.839844 35.519531 14.371094 30.03125 14.371094 C 24.542969 14.371094 20.074219 18.839844 20.074219 24.332031 L 20.074219 33.765625 L 15.582031 33.765625 Z M 67.695312 39.695312 L 66.667969 32.800781 C 66.613281 32.433594 66.394531 32.113281 66.074219 31.929688 C 65.753906 31.746094 65.367188 31.714844 65.023438 31.851562 L 57.738281 34.730469 C 57.480469 34.832031 57.269531 35.015625 57.132812 35.25 L 42.542969 60.511719 C 42.519531 60.511719 42.496094 60.511719 42.472656 60.511719 C 38.089844 60.511719 34.074219 62.808594 31.859375 66.648438 C 28.476562 72.507812 30.492188 80.027344 36.351562 83.410156 C 38.277344 84.523438 40.382812 85.050781 42.464844 85.050781 C 46.707031 85.050781 50.84375 82.847656 53.113281 78.917969 C 55.339844 75.058594 55.3125 70.402344 53.085938 66.597656 L 57.769531 58.488281 C 57.964844 58.152344 57.984375 57.738281 57.824219 57.382812 L 55.882812 53.082031 L 59.910156 52.675781 C 60.296875 52.636719 60.644531 52.410156 60.839844 52.074219 C 61.03125 51.738281 61.054688 51.328125 60.894531 50.972656 L 59.230469 47.28125 L 63.261719 46.878906 C 63.648438 46.839844 63.992188 46.617188 64.1875 46.28125 C 64.382812 45.941406 64.40625 45.53125 64.246094 45.175781 L 62.582031 41.484375 L 66.617188 41.078125 C 66.945312 41.046875 67.246094 40.878906 67.449219 40.617188 C 67.65625 40.355469 67.742188 40.023438 67.695312 39.695312 Z M 60.664062 39.238281 C 60.277344 39.277344 59.929688 39.5 59.738281 39.839844 C 59.542969 40.175781 59.519531 40.585938 59.679688 40.941406 L 61.34375 44.636719 L 57.3125 45.039062 C 56.925781 45.078125 56.578125 45.300781 56.382812 45.640625 C 56.191406 45.976562 56.167969 46.386719 56.328125 46.742188 L 57.992188 50.433594 L 53.964844 50.839844 C 53.578125 50.878906 53.230469 51.101562 53.039062 51.4375 C 52.84375 51.777344 52.820312 52.1875 52.984375 52.542969 L 55.359375 57.816406 L 50.625 66.015625 C 50.390625 66.414062 50.410156 66.910156 50.664062 67.296875 C 52.773438 70.441406 52.90625 74.429688 51.015625 77.707031 C 48.300781 82.40625 42.265625 84.023438 37.5625 81.3125 C 32.859375 78.597656 31.246094 72.5625 33.957031 67.859375 C 35.738281 64.78125 38.957031 62.9375 42.476562 62.9375 C 42.699219 62.9375 42.925781 62.945312 43.148438 62.957031 C 43.609375 62.988281 44.046875 62.753906 44.277344 62.355469 L 59.019531 36.828125 L 64.496094 34.667969 L 65.109375 38.796875 Z M 42.390625 72.945312 C 40.359375 71.777344 37.753906 72.476562 36.578125 74.507812 C 36.007812 75.488281 35.855469 76.636719 36.152344 77.734375 C 36.445312 78.835938 37.152344 79.75 38.132812 80.316406 C 38.800781 80.703125 39.535156 80.886719 40.253906 80.886719 C 41.726562 80.886719 43.160156 80.125 43.949219 78.761719 C 44.515625 77.777344 44.667969 76.632812 44.375 75.53125 C 44.082031 74.433594 43.378906 73.515625 42.390625 72.945312 Z M 41.851562 77.550781 C 41.34375 78.425781 40.222656 78.726562 39.34375 78.21875 C 38.921875 77.976562 38.617188 77.582031 38.492188 77.109375 C 38.367188 76.636719 38.429688 76.144531 38.675781 75.722656 C 38.675781 75.722656 38.675781 75.722656 38.675781 75.71875 C 39.015625 75.132812 39.636719 74.804688 40.269531 74.804688 C 40.582031 74.804688 40.894531 74.882812 41.179688 75.046875 C 41.605469 75.292969 41.90625 75.6875 42.035156 76.160156 C 42.160156 76.632812 42.09375 77.125 41.851562 77.550781 Z M 31.242188 59.597656 L 31.242188 54.691406 C 33.644531 54.136719 35.441406 51.984375 35.441406 49.417969 C 35.441406 46.433594 33.015625 44.007812 30.03125 44.007812 C 27.046875 44.007812 24.621094 46.433594 24.621094 49.417969 C 24.621094 51.984375 26.417969 54.136719 28.820312 54.691406 L 28.820312 59.597656 C 28.820312 60.265625 29.363281 60.808594 30.03125 60.808594 C 30.699219 60.808594 31.242188 60.265625 31.242188 59.597656 Z M 27.046875 49.417969 C 27.046875 47.769531 28.382812 46.429688 30.03125 46.429688 C 31.675781 46.429688 33.015625 47.769531 33.015625 49.417969 C 33.015625 51.066406 31.675781 52.40625 30.03125 52.40625 C 28.382812 52.40625 27.046875 51.066406 27.046875 49.417969 Z M 27.046875 49.417969 " fill-opacity="1" fill-rule="nonzero"/></g></svg>