<svg xmlns="http://www.w3.org/2000/svg" xmlns:xlink="http://www.w3.org/1999/xlink" width="40" zoomAndPan="magnify" viewBox="0 0 30 49.499998" height="66" preserveAspectRatio="xMidYMid meet" version="1.0"><defs><clipPath id="f01f186e07"><path d="M 5 8.0625 L 19 8.0625 L 19 28 L 5 28 Z M 5 8.0625 " clip-rule="nonzero"/></clipPath><clipPath id="42d017dd1b"><path d="M 2.515625 8.0625 L 27.757812 8.0625 L 27.757812 39.988281 L 2.515625 39.988281 Z M 2.515625 8.0625 " clip-rule="nonzero"/></clipPath></defs><g clip-path="url(#f01f186e07)"><path fill="#93c0fc" d="M 12.113281 8.976562 C 15.65625 8.976562 18.554688 11.832031 18.554688 15.324219 L 18.554688 27.140625 L 15.710938 27.140625 L 15.710938 15.324219 C 15.710938 13.378906 14.085938 11.777344 12.113281 11.777344 C 10.140625 11.777344 8.515625 13.378906 8.515625 15.324219 L 8.515625 27.140625 L 5.671875 27.140625 L 5.671875 15.324219 C 5.671875 11.832031 8.570312 8.976562 12.113281 8.976562 Z M 12.113281 8.976562 " fill-opacity="1" fill-rule="evenodd"/></g><path fill="#93c0fc" d="M 3.269531 19.640625 L 3.269531 34.753906 L 12.691406 34.753906 C 12.726562 34.0625 12.921875 33.363281 13.296875 32.722656 C 14.195312 31.195312 15.871094 30.382812 17.546875 30.492188 L 20.957031 24.671875 L 20.957031 19.640625 Z M 11.988281 26.808594 C 11.148438 26.808594 10.460938 26.132812 10.460938 25.304688 C 10.460938 24.480469 11.148438 23.804688 11.988281 23.804688 C 12.828125 23.804688 13.511719 24.480469 13.511719 25.304688 C 13.511719 26.132812 12.828125 26.808594 11.988281 26.808594 Z M 11.988281 26.808594 " fill-opacity="1" fill-rule="evenodd"/><g clip-path="url(#42d017dd1b)"><path fill="#126dfb" d="M 10.832031 34.226562 L 3.53125 34.226562 L 3.53125 19.882812 L 20.472656 19.882812 L 20.472656 21.484375 C 20.472656 21.761719 20.699219 21.984375 20.980469 21.984375 C 21.257812 21.984375 21.484375 21.761719 21.484375 21.484375 L 21.484375 19.382812 C 21.484375 19.109375 21.257812 18.886719 20.980469 18.886719 L 19.050781 18.886719 L 19.050781 15.003906 C 19.050781 11.175781 15.886719 8.0625 12.003906 8.0625 C 8.117188 8.0625 4.957031 11.175781 4.957031 15.003906 L 4.957031 18.886719 L 3.027344 18.886719 C 2.746094 18.886719 2.519531 19.109375 2.519531 19.382812 L 2.519531 34.722656 C 2.519531 35 2.746094 35.222656 3.027344 35.222656 L 10.832031 35.222656 C 11.113281 35.222656 11.339844 35 11.339844 34.722656 C 11.339844 34.449219 11.113281 34.226562 10.832031 34.226562 Z M 15.148438 18.886719 L 8.855469 18.886719 L 8.855469 15.003906 C 8.855469 13.292969 10.269531 11.902344 12.003906 11.902344 C 13.738281 11.902344 15.148438 13.292969 15.148438 15.003906 Z M 5.96875 15.003906 C 5.96875 11.726562 8.675781 9.058594 12.003906 9.058594 C 15.332031 9.058594 18.035156 11.726562 18.035156 15.003906 L 18.035156 18.886719 L 16.160156 18.886719 L 16.160156 15.003906 C 16.160156 12.742188 14.296875 10.90625 12.003906 10.90625 C 9.710938 10.90625 7.84375 12.742188 7.84375 15.003906 L 7.84375 18.886719 L 5.96875 18.886719 Z M 27.734375 21.324219 L 27.304688 18.488281 C 27.285156 18.339844 27.191406 18.207031 27.058594 18.128906 C 26.925781 18.054688 26.761719 18.042969 26.621094 18.097656 L 23.574219 19.28125 C 23.46875 19.324219 23.378906 19.398438 23.324219 19.496094 L 17.230469 29.890625 C 17.21875 29.890625 17.210938 29.890625 17.199219 29.890625 C 15.367188 29.890625 13.691406 30.835938 12.765625 32.414062 C 11.355469 34.828125 12.195312 37.921875 14.644531 39.3125 C 15.449219 39.769531 16.328125 39.988281 17.195312 39.988281 C 18.96875 39.988281 20.695312 39.082031 21.644531 37.464844 C 22.574219 35.875 22.5625 33.960938 21.632812 32.394531 L 23.589844 29.058594 C 23.671875 28.921875 23.679688 28.75 23.613281 28.605469 L 22.800781 26.832031 L 24.484375 26.667969 C 24.644531 26.648438 24.789062 26.558594 24.871094 26.417969 C 24.953125 26.28125 24.960938 26.113281 24.894531 25.964844 L 24.199219 24.449219 L 25.882812 24.28125 C 26.046875 24.265625 26.191406 24.171875 26.269531 24.035156 C 26.351562 23.894531 26.359375 23.726562 26.292969 23.582031 L 25.601562 22.0625 L 27.285156 21.894531 C 27.421875 21.882812 27.546875 21.8125 27.632812 21.707031 C 27.71875 21.597656 27.753906 21.460938 27.734375 21.324219 Z M 24.800781 21.136719 C 24.636719 21.152344 24.492188 21.246094 24.410156 21.386719 C 24.328125 21.523438 24.320312 21.691406 24.386719 21.839844 L 25.082031 23.359375 L 23.398438 23.523438 C 23.238281 23.539062 23.09375 23.632812 23.011719 23.769531 C 22.929688 23.910156 22.921875 24.078125 22.988281 24.226562 L 23.683594 25.742188 L 22 25.910156 C 21.839844 25.925781 21.695312 26.019531 21.613281 26.15625 C 21.53125 26.296875 21.523438 26.464844 21.589844 26.613281 L 22.582031 28.78125 L 20.605469 32.15625 C 20.507812 32.320312 20.515625 32.523438 20.621094 32.683594 C 21.503906 33.976562 21.558594 35.617188 20.769531 36.964844 C 19.632812 38.902344 17.113281 39.566406 15.148438 38.449219 C 13.183594 37.332031 12.511719 34.851562 13.644531 32.914062 C 14.386719 31.648438 15.730469 30.890625 17.203125 30.890625 C 17.296875 30.890625 17.390625 30.890625 17.484375 30.898438 C 17.675781 30.910156 17.859375 30.816406 17.953125 30.648438 L 24.113281 20.144531 L 26.398438 19.257812 L 26.65625 20.957031 Z M 17.164062 35.007812 C 16.316406 34.527344 15.230469 34.816406 14.738281 35.648438 C 14.5 36.054688 14.4375 36.527344 14.558594 36.980469 C 14.683594 37.429688 14.976562 37.808594 15.386719 38.042969 C 15.667969 38.199219 15.972656 38.277344 16.273438 38.277344 C 16.890625 38.277344 17.488281 37.960938 17.816406 37.402344 C 18.054688 36.996094 18.117188 36.523438 17.996094 36.074219 C 17.871094 35.621094 17.578125 35.242188 17.164062 35.007812 Z M 16.941406 36.902344 C 16.730469 37.261719 16.257812 37.386719 15.894531 37.175781 C 15.71875 37.078125 15.589844 36.914062 15.539062 36.722656 C 15.484375 36.527344 15.511719 36.324219 15.613281 36.148438 C 15.757812 35.90625 16.015625 35.773438 16.28125 35.773438 C 16.410156 35.773438 16.539062 35.804688 16.660156 35.871094 C 16.835938 35.972656 16.964844 36.136719 17.015625 36.332031 C 17.070312 36.523438 17.042969 36.726562 16.941406 36.902344 Z M 12.507812 29.515625 L 12.507812 27.496094 C 13.511719 27.269531 14.261719 26.382812 14.261719 25.328125 C 14.261719 24.097656 13.25 23.101562 12.003906 23.101562 C 10.757812 23.101562 9.742188 24.097656 9.742188 25.328125 C 9.742188 26.382812 10.496094 27.269531 11.496094 27.496094 L 11.496094 29.515625 C 11.496094 29.789062 11.722656 30.011719 12.003906 30.011719 C 12.28125 30.011719 12.507812 29.789062 12.507812 29.515625 Z M 10.757812 25.328125 C 10.757812 24.648438 11.316406 24.097656 12.003906 24.097656 C 12.691406 24.097656 13.25 24.648438 13.25 25.328125 C 13.25 26.003906 12.691406 26.554688 12.003906 26.554688 C 11.316406 26.554688 10.757812 26.003906 10.757812 25.328125 Z M 10.757812 25.328125 " fill-opacity="1" fill-rule="nonzero"/></g></svg>