<svg xmlns="http://www.w3.org/2000/svg" xmlns:xlink="http://www.w3.org/1999/xlink" width="40" zoomAndPan="magnify" viewBox="0 0 30 49.499998" height="66" preserveAspectRatio="xMidYMid meet" version="1.0"><defs><clipPath id="3ed0f5c924"><path d="M 1.859375 11.910156 L 27.84375 11.910156 L 27.84375 37.898438 L 1.859375 37.898438 Z M 1.859375 11.910156 " clip-rule="nonzero"/></clipPath></defs><g clip-path="url(#3ed0f5c924)"><path fill="#e52d27" d="M 27.84375 33.949219 C 27.84375 36.125 26.074219 37.898438 23.894531 37.898438 L 5.808594 37.898438 C 3.628906 37.898438 1.859375 36.125 1.859375 33.949219 L 1.859375 15.859375 C 1.859375 13.679688 3.628906 11.910156 5.808594 11.910156 L 23.894531 11.910156 C 26.074219 11.910156 27.84375 13.679688 27.84375 15.859375 Z M 27.84375 33.949219 " fill-opacity="1" fill-rule="nonzero"/></g><path fill="#ffffff" d="M 24.0625 25.109375 C 24.0625 26.546875 24.0625 28.070312 23.742188 29.460938 C 23.515625 30.441406 22.714844 31.160156 21.75 31.269531 C 19.46875 31.519531 17.152344 31.527344 14.855469 31.519531 C 12.550781 31.519531 10.246094 31.519531 7.957031 31.269531 C 6.996094 31.160156 6.191406 30.441406 5.964844 29.460938 C 5.644531 28.070312 5.644531 26.546875 5.644531 25.109375 C 5.644531 23.671875 5.648438 22.148438 5.964844 20.757812 C 6.191406 19.777344 6.992188 19.058594 7.957031 18.949219 C 10.246094 18.691406 12.554688 18.691406 14.855469 18.691406 C 17.152344 18.691406 19.464844 18.691406 21.75 18.949219 C 22.710938 19.058594 23.515625 19.777344 23.742188 20.757812 C 24.0625 22.148438 24.0625 23.671875 24.0625 25.109375 Z M 24.0625 25.109375 " fill-opacity="1" fill-rule="nonzero"/><path fill="#e52d27" d="M 12.914062 21.683594 L 12.914062 28.566406 L 18.261719 25.121094 Z M 12.914062 21.683594 " fill-opacity="1" fill-rule="nonzero"/></svg>