<svg xmlns="http://www.w3.org/2000/svg" xmlns:xlink="http://www.w3.org/1999/xlink" width="100" zoomAndPan="magnify" viewBox="0 0 75 94.499997" height="126" preserveAspectRatio="xMidYMid meet" version="1.0"><defs><clipPath id="60e26eadf9"><path d="M 4.488281 15.367188 L 70.886719 15.367188 L 70.886719 81.765625 L 4.488281 81.765625 Z M 4.488281 15.367188 " clip-rule="nonzero"/></clipPath></defs><g clip-path="url(#60e26eadf9)"><path fill="#e52d27" d="M 70.886719 71.675781 C 70.886719 77.242188 66.359375 81.765625 60.796875 81.765625 L 14.578125 81.765625 C 9.011719 81.765625 4.488281 77.242188 4.488281 71.675781 L 4.488281 25.460938 C 4.488281 19.894531 9.011719 15.367188 14.578125 15.367188 L 60.796875 15.367188 C 66.359375 15.367188 70.886719 19.894531 70.886719 25.460938 Z M 70.886719 71.675781 " fill-opacity="1" fill-rule="nonzero"/></g><path fill="#ffffff" d="M 61.222656 49.09375 C 61.222656 52.765625 61.222656 56.65625 60.402344 60.210938 C 59.824219 62.71875 57.78125 64.554688 55.3125 64.828125 C 49.480469 65.476562 43.570312 65.488281 37.691406 65.476562 C 31.804688 65.476562 25.914062 65.476562 20.074219 64.828125 C 17.613281 64.554688 15.558594 62.71875 14.980469 60.210938 C 14.164062 56.65625 14.164062 52.765625 14.164062 49.09375 C 14.164062 45.421875 14.175781 41.53125 14.980469 37.976562 C 15.558594 35.46875 17.601562 33.632812 20.074219 33.355469 C 25.914062 32.699219 31.816406 32.699219 37.691406 32.699219 C 43.570312 32.699219 49.46875 32.699219 55.3125 33.355469 C 57.769531 33.632812 59.824219 35.46875 60.402344 37.976562 C 61.222656 41.53125 61.222656 45.421875 61.222656 49.09375 Z M 61.222656 49.09375 " fill-opacity="1" fill-rule="nonzero"/><path fill="#e52d27" d="M 32.738281 40.34375 L 32.738281 57.925781 L 46.398438 49.128906 Z M 32.738281 40.34375 " fill-opacity="1" fill-rule="nonzero"/></svg>